<?xml version="1.0" encoding="UTF-8" standalone="no"?>
<!-- Created with Inkscape (http://www.inkscape.org/) -->

<svg
   version="1.1"
   id="svg1"
   width="99.999962"
   height="125.91"
   viewBox="0 0 99.999965 125.91001"
   sodipodi:docname="logo.svg"
   inkscape:version="1.3 (0e150ed6c4, 2023-07-21)"
   xmlns:inkscape="http://www.inkscape.org/namespaces/inkscape"
   xmlns:sodipodi="http://sodipodi.sourceforge.net/DTD/sodipodi-0.dtd"
   xmlns="http://www.w3.org/2000/svg"
   xmlns:svg="http://www.w3.org/2000/svg"
   xmlns:rdf="http://www.w3.org/1999/02/22-rdf-syntax-ns#"
   xmlns:cc="http://creativecommons.org/ns#"
   xmlns:dc="http://purl.org/dc/elements/1.1/">
  <title
     id="title1">Cl-Micropm-Index Logo</title>
  <defs
     id="defs1" />
  <sodipodi:namedview
     id="namedview1"
     pagecolor="#ffffff"
     bordercolor="#000000"
     borderopacity="0.25"
     inkscape:showpageshadow="2"
     inkscape:pageopacity="0.0"
     inkscape:pagecheckerboard="0"
     inkscape:deskcolor="#d1d1d1"
     inkscape:zoom="1.0356666"
     inkscape:cx="197.45737"
     inkscape:cy="77.727717"
     inkscape:window-width="1918"
     inkscape:window-height="1059"
     inkscape:window-x="0"
     inkscape:window-y="19"
     inkscape:window-maximized="1"
     inkscape:current-layer="g1" />
  <g
     inkscape:groupmode="layer"
     inkscape:label="Image"
     id="g1"
     transform="translate(-631.91827,-622.11225)">
    <g
       id="g17"
       transform="matrix(0.15092733,0,0,0.15092733,578.99815,581.67188)">
      <path
         id="rect20"
         style="display:inline;fill:#f4e3d7;stroke-width:0.982564"
         d="m 427.0352,320.4808 h 363.78173 c 17.2257,0 171.73305,140.00114 171.67818,157.22677 l -1.73379,544.30303 c -0.0549,17.2256 -13.86763,31.0933 -31.09333,31.0933 H 427.0352 c -17.22571,0 -31.09334,-13.8676 -31.09334,-31.0933 V 351.57414 c 0,-17.22571 13.86763,-31.09334 31.09334,-31.09334 z"
         sodipodi:nodetypes="sssssssss" />
      <path
         style="display:inline;fill:#deaa87"
         d="m 964.26233,566.92464 c -0.90929,33.66355 -21.14044,-18.65269 -26.83254,-24.31293 -13.21969,-13.14571 -9.82141,-12.55648 -74.76317,-12.96308 -61.61948,-0.38579 -63.36344,-0.56657 -80.52216,-8.3467 -10.79149,-4.8931 -25.00037,-18.6441 -31.01733,-30.01782 -8.84193,-16.71368 -8.90507,-17.2158 -9.71941,-77.28413 -0.7411,-54.66667 -1.52808,-54.30546 -4.43121,-61.66862 -7.3194,-18.56408 -56.84991,-28.03284 -28.40173,-27.75251 96.03856,0.94637 258.6582,132.36726 255.68755,242.34579 z"
         id="path18"
         inkscape:label="path18"
         sodipodi:nodetypes="sssssssss" />
      <path
         style="fill:#2b2b2b;fill-opacity:1"
         d="m 421.29601,1101.3804 c -33.93398,-4.4474 -62.64028,-32.253 -69.3677,-67.191 -0.75377,-3.9146 -1.25831,-143.44285 -1.27527,-352.66665 -0.0309,-380.70903 -0.63828,-352.59426 7.99784,-370.18944 11.35544,-23.13547 30.89127,-38.04599 54.96695,-41.95294 12.19955,-1.97972 363.88586,-1.87842 373.31649,0.10753 17.61522,3.7095 14.50269,0.95315 115.94788,102.67966 58.80569,58.96876 96.25989,97.53822 99.6549,102.62228 11.0878,16.60414 10.086,-10.74981 10.4822,286.20245 0.3952,296.12051 1.1231,273.66561 -9.5853,295.67791 -10.16211,20.8895 -25.86589,34.295 -49.43406,42.1995 -9.33333,3.1302 -9.33333,3.1302 -267.33331,3.3035 -141.9,0.095 -261.31677,-0.2615 -265.37062,-0.7928 z m 507.5544,-65.6605 c 8.54634,-4.5078 15.67288,-12.6985 18.77136,-21.5742 2.24816,-6.44 2.37817,-20.00616 2.37817,-248.14575 0,-241.33331 0,-241.33331 -3.16397,-247.7031 -1.74018,-3.50339 -5.61398,-8.46691 -8.60842,-11.03004 -9.86458,-8.44371 -13.73305,-9.02745 -62.2276,-9.3899 -40.38037,-0.3018 -43.96935,-0.52332 -52.66667,-3.25062 -13.53135,-4.24317 -18.93758,-7.358 -28.18793,-16.24064 -10.10576,-9.70405 -18.45228,-25.36529 -20.45732,-38.38568 -0.73403,-4.76666 -1.33913,-25.03593 -1.34467,-45.04282 -0.0109,-39.21092 -0.2577,-40.88215 -7.42651,-50.28095 -2.10641,-2.76164 -7.144,-6.42609 -12.37318,-9.00052 -8.82022,-4.34237 -8.82022,-4.34237 -162.18196,-4.34237 -153.36174,0 -153.36174,0 -159.97969,3.05093 -8.53157,3.93312 -10.90176,6.16128 -15.19283,14.28241 -3.52255,6.66666 -3.52255,6.66666 -3.52255,333.99998 0,327.33327 0,327.33327 3.15103,334.30267 4.87345,10.7791 14.39651,18.6851 26.1823,21.7366 2.2,0.5697 111.1,0.9438 241.99999,0.8315 237.99999,-0.2041 237.99999,-0.2041 244.85045,-3.8175 z M 603.99996,849.12506 c -23.15067,-13.206 -49.78903,-54.79269 -59.47981,-92.85739 -11.88152,-46.66976 -2.77097,-100.06718 24.20175,-141.84776 8.06883,-12.49857 27.43851,-32.40162 35.56707,-36.54645 7.1421,-3.64183 16.09929,-4.19458 22.77465,-1.40544 5.86316,2.44979 12.51203,10.3379 14.295,16.95934 2.6139,9.70727 -0.42793,17.49737 -11.67749,29.90594 -9.26892,10.22386 -19.33267,26.53688 -24.2711,39.34265 -6.67101,17.29851 -8.75833,30.21521 -8.61707,53.32401 0.11279,18.4509 0.51544,21.95324 3.7556,32.66666 7.43723,24.59086 15.69375,39.77811 30.44428,56 11.26517,12.38886 14.316,20.18756 11.69912,29.90593 -4.54044,16.86192 -22.68203,23.68518 -38.692,14.55251 z m 137.97521,1.0168 c -5.64888,-2.46137 -12.26164,-10.44487 -14.00054,-16.90264 -2.61689,-9.71837 0.43394,-17.51708 11.69911,-29.90593 14.75054,-16.22189 23.00706,-31.40915 30.44429,-56 3.24015,-10.71343 3.6428,-14.21577 3.75559,-32.66667 0.14126,-23.1088 -1.94605,-36.0255 -8.61706,-53.324 -4.97633,-12.90404 -15.47153,-29.922 -24.46498,-39.66995 -11.00185,-11.92485 -14.09321,-19.88734 -11.48362,-29.57864 1.78297,-6.62145 8.43185,-14.50955 14.29501,-16.95934 6.67536,-2.78914 15.63255,-2.23639 22.77464,1.40544 3.475,1.77193 11.43054,8.48367 17.77978,15 33.45286,34.33323 50.31661,83.6843 46.39033,135.75937 -2.8716,38.08674 -22.11827,81.38884 -47.71402,107.34938 -15.42785,15.64773 -28.83554,20.73173 -40.85853,15.49298 z"
         id="path17" />
    </g>
  </g>
  <metadata
     id="metadata1">
    <rdf:RDF>
      <cc:Work
         rdf:about="">
        <dc:rights>
          <cc:Agent>
            <dc:title>Copyright 2023 Risto Stevcev. This work is licensed under a Creative Commons Attribution-NonCommercial (CC BY-NC) license.&#10;&#10;You are free to:&#10;- Share — copy and redistribute the material in any medium or format&#10;- Adapt — remix, transform, and build upon the material&#10;&#10;Under the following terms:&#10;- Attribution — You must give appropriate credit, provide a link to the license, and indicate if changes were made. You may do so in any reasonable manner, but not in any way that suggests the licensor endorses you or your use.&#10;- NonCommercial — You may not use the material for commercial purposes.&#10;&#10;For more information about this license, visit https://creativecommons.org/licenses/by-nc/4.0/</dc:title>
          </cc:Agent>
        </dc:rights>
        <dc:title>Cl-Micropm-Index Logo</dc:title>
        <dc:date>2023-11-24</dc:date>
        <dc:creator>
          <cc:Agent>
            <dc:title>Risto Stevcev</dc:title>
          </cc:Agent>
        </dc:creator>
      </cc:Work>
    </rdf:RDF>
  </metadata>
</svg>
